<svg xmlns="http://www.w3.org/2000/svg" xmlns:xlink="http://www.w3.org/1999/xlink" version="1.1" x="0px" y="0px" viewBox="0 0 129.736 296.47749999999996" style="enable-background:new 0 0 129.736 237.182;" xml:space="preserve"><g><path d="M56.367,51.401l-0.002-0.002c-0.578,0.216-11.291,4.051-23.642,14.088C20.396,75.488,6.383,91.949,0.237,116.768   c-1.063,4.288,1.549,8.628,5.839,9.691c0.647,0.161,1.295,0.237,1.932,0.237c2.174,0.001,4.223-0.895,5.706-2.406   c2.861,8.724,11.065,15.026,20.746,15.026c7.064,0,13.342-3.359,17.332-8.563c2.82-3.678,4.5-8.277,4.5-13.27   c0-5.988-2.412-11.412-6.315-15.356c-3.957-3.999-9.447-6.478-15.517-6.478c-3.233,0-6.3,0.708-9.06,1.969   c5.262-8.482,11.524-14.908,17.421-19.723c3.552-2.89,6.944-5.156,9.865-6.893V94.34c12.518-14.71,7.543-39.954,6.747-43.573   c-0.356,0.045-0.704,0.116-1.043,0.208C57.715,51.03,57.036,51.163,56.367,51.401z"/><path d="M79.731,66.983c6.319,0,9.585-13.814,10.12-16.286h-20.24C70.146,53.169,73.412,66.983,79.731,66.983z"/><path d="M106.778,94.342V75.074c0.591,1.215,1.188,2.608,1.777,4.232c2.819,7.813,5.19,20.632,5.182,40.641   c0,5.514-0.177,11.572-0.565,18.223c-0.258,4.412,3.109,8.194,7.521,8.454c0.157,0.009,0.314,0.014,0.47,0.014   c4.205,0,7.733-3.281,7.983-7.535c0.404-6.934,0.59-13.301,0.59-19.156c-0.04-30.185-4.861-46.889-11.434-56.933   c-3.286-4.987-7.128-8.184-10.68-9.956c-2.316-1.168-4.44-1.719-6.135-1.963c-0.469-0.156-0.955-0.266-1.459-0.33   C99.234,54.385,94.258,79.632,106.778,94.342z"/><path d="M52.686,224.818c0,6.83,5.537,12.363,12.363,12.363c6.828,0,12.365-5.533,12.365-12.363v-46.052   c-9.373-0.383-21.402-2.865-24.729-3.585V224.818z"/><path d="M82.05,224.818c0,6.83,5.537,12.363,12.363,12.363c6.828,0,12.365-5.533,12.365-12.363v-49.424   c-4.569,0.905-16.028,3.023-24.729,3.373V224.818z"/><circle cx="79.731" cy="22.5" r="22.5"/><path d="M97.794,131.33c-5.951,0.662-13.178,1.322-18.063,1.32c-4.885,0.002-12.113-0.658-18.064-1.32   c-3.814-0.426-7.102-0.85-8.98-1.1v4.035c5.301,0.699,18.828,2.379,27.045,2.385c8.215-0.006,21.746-1.686,27.045-2.385v-4.035   C104.897,130.48,101.61,130.904,97.794,131.33z"/><path d="M59.083,169.684c-2.492-0.443-4.701-0.886-6.396-1.243v3.064c5.812,1.207,16.533,3.178,24.73,3.186v-2.999   C71.835,171.695,64.739,170.693,59.083,169.684z"/><path d="M81.936,171.691v3c8.25-0.009,19.055-2.005,24.84-3.209v-3.064c-1.709,0.361-3.957,0.813-6.504,1.266   C94.614,170.693,87.519,171.693,81.936,171.691z"/></g><text x="0" y="252.182" fill="#000000" font-size="5px" font-weight="bold" font-family="'Helvetica Neue', Helvetica, Arial-Unicode, Arial, Sans-serif">Created by Gan Khoon Lay</text><text x="0" y="257.182" fill="#000000" font-size="5px" font-weight="bold" font-family="'Helvetica Neue', Helvetica, Arial-Unicode, Arial, Sans-serif">from the Noun Project</text></svg>