<svg xmlns="http://www.w3.org/2000/svg" xmlns:xlink="http://www.w3.org/1999/xlink" version="1.1" x="0px" y="0px" viewBox="0 0 100 125" style="enable-background:new 0 0 100 100;" xml:space="preserve"><g><path d="M51.52,13.11c-0.78-0.78-2.05-0.78-2.83,0l-35.2,35.2c-0.57,0.57-0.74,1.43-0.43,2.18c0.31,0.75,1.04,1.23,1.85,1.23h7.3   v29.1c0,1.1,0.9,2,2,2H41.9c1.1,0,2-0.9,2-2V61.47h12.43v19.35c0,1.1,0.9,2,2,2h16.93c1.1,0,2-0.9,2-2v-29.1h8.06   c0.81,0,1.54-0.49,1.85-1.23c0.31-0.75,0.14-1.61-0.43-2.18L51.52,13.11z M75.25,47.73c-1.1,0-2,0.9-2,2v29.1H60.32V59.47   c0-1.1-0.9-2-2-2H41.9c-1.1,0-2,0.9-2,2v19.35H26.21v-29.1c0-1.1-0.9-2-2-2h-4.47l30.37-30.37l30.37,30.37H75.25z"/></g><text x="0" y="115" fill="#000000" font-size="5px" font-weight="bold" font-family="'Helvetica Neue', Helvetica, Arial-Unicode, Arial, Sans-serif">Created by iconlabs</text><text x="0" y="120" fill="#000000" font-size="5px" font-weight="bold" font-family="'Helvetica Neue', Helvetica, Arial-Unicode, Arial, Sans-serif">from the Noun Project</text></svg>