<svg xmlns="http://www.w3.org/2000/svg" data-name="Layer 1" viewBox="0 0 64 80" x="0px" y="0px"><path d="M56.893,17.565c-.532-1.499-1.947-2.505-3.522-2.505H5.73c-2.057,0-3.73,1.673-3.73,3.73v21.93c0,2.057,1.674,3.73,3.73,3.73h2.388c.475,2.668,2.807,4.702,5.609,4.702s5.135-2.034,5.61-4.702h24.533c.475,2.668,2.807,4.702,5.61,4.702s5.135-2.034,5.61-4.702h3.178c2.057,0,3.73-1.673,3.73-3.73v-7.58c0-.564-.097-1.126-.286-1.668l-4.821-13.907Zm2.935,14.575h-8.22l-2.937-2.87v-7.94h7.41l3.745,10.8s.002,.007,.003,.01ZM13.728,47.152c-2.042,0-3.703-1.662-3.703-3.704s1.661-3.704,3.703-3.704,3.701,1.659,3.704,3.698c0,.002-.001,.005-.001,.007,0,.002,.001,.004,.001,.006-.004,2.038-1.664,3.696-3.703,3.696Zm35.754,0c-2.038,0-3.697-1.656-3.703-3.693,0-.003,.002-.006,.002-.009,0-.004-.002-.007-.002-.01,.005-2.038,1.664-3.695,3.703-3.695s3.704,1.662,3.704,3.704-1.662,3.704-3.704,3.704Zm8.788-4.702h-3.177c-.474-2.67-2.807-4.705-5.611-4.705s-5.137,2.035-5.611,4.705H19.338c-.474-2.67-2.807-4.705-5.611-4.705s-5.136,2.035-5.61,4.705h-2.387c-.954,0-1.73-.776-1.73-1.73V18.79c0-.954,.776-1.73,1.73-1.73H53.37c.73,0,1.389,.472,1.635,1.167l.382,1.103h-7.717c-.006,0-.011,.003-.017,.003H10.021c-.921,0-1.67,.749-1.67,1.669v8.017c0,.92,.749,1.669,1.67,1.669H47.261l3.24,3.167c.188,.183,.438,.285,.699,.285h8.8v6.58c0,.954-.776,1.73-1.73,1.73Zm-19.179-21.117h7.579v7.355h-7.579v-7.355Zm-9.58,0h7.58v7.355h-7.58v-7.355Zm-9.58,0h7.58v7.355h-7.58v-7.355Zm-9.58,7.355v-7.355h7.58v7.355h-7.58Z"/><text x="0" y="79" fill="#000000" font-size="5px" font-weight="bold" font-family="'Helvetica Neue', Helvetica, Arial-Unicode, Arial, Sans-serif">Created by Nur syifa fauziah</text><text x="0" y="84" fill="#000000" font-size="5px" font-weight="bold" font-family="'Helvetica Neue', Helvetica, Arial-Unicode, Arial, Sans-serif">from the Noun Project</text></svg>