<svg xmlns="http://www.w3.org/2000/svg" xmlns:xlink="http://www.w3.org/1999/xlink" version="1.1" x="0px" y="0px" viewBox="0 0 449.999 239.345" style="enable-background:new 0 0 449.999 191.476;" xml:space="preserve"><g><path d="M34.938,124.496H0v32.646h9.736v34.334h12.981v-34.334H39.11l-4.997-24.197C33.505,130,33.853,127.078,34.938,124.496z"/><path d="M92.504,118.345c-5.781,0.579-12.823,1.153-18.01,1.153c-5.187,0-12.229-0.574-18.011-1.153   c2.861,2.03,5.002,5.091,5.766,8.79l6.197,30.008h12.095l6.197-30.008C87.502,123.435,89.642,120.375,92.504,118.345z"/><path d="M412.457,132.945l-4.997,24.197h19.823v34.334h12.98v-34.334h9.735v-32.646h-38.368   C412.716,127.078,413.065,130,412.457,132.945z"/><path d="M287.179,118.345c-5.781,0.579-12.823,1.153-18.011,1.153s-12.229-0.574-18.011-1.153c2.862,2.03,5.002,5.091,5.767,8.79   l6.196,30.008h12.096l6.196-30.008C282.177,123.435,284.316,120.375,287.179,118.345z"/><path d="M390.086,118.345c-5.781,0.579-12.823,1.153-18.01,1.153c-5.187,0-12.229-0.574-18.011-1.153   c2.861,2.03,5.002,5.091,5.766,8.79l6.197,30.008h12.095l6.197-30.008C385.084,123.435,387.224,120.375,390.086,118.345z"/><path d="M332.52,124.496h-23.798c1.086,2.582,1.435,5.504,0.826,8.449l-4.997,24.197h32.141l-4.997-24.197   C331.087,130,331.434,127.078,332.52,124.496z"/><path d="M229.613,124.496h-26.768c-0.03,0.865-0.13,1.738-0.325,2.613c-0.49,2.198-1.475,4.155-2.795,5.807   c-0.043,0.899-0.165,1.807-0.386,2.713l-5.246,21.514h39.691l-4.997-24.197C228.179,130,228.527,127.078,229.613,124.496z"/><path d="M138.92,127.646c-2.397-0.535-4.52-1.645-6.258-3.15h-18.613c1.085,2.582,1.435,5.504,0.826,8.449l-4.997,24.197h54.645   l5.501-22.561L138.92,127.646z"/><path d="M74.495,47c-3.066,0-6-0.571-8.707-1.605c1.586,4.847,4.454,11.103,8.706,11.103c4.251,0,7.12-6.255,8.706-11.102   C80.493,46.429,77.559,47,74.495,47z"/><path d="M45.68,117.932c-6.686,1.381-10.988,7.92-9.607,14.607l9.627,46.613c1.381,6.689,7.923,10.988,14.607,9.607   c6.687-1.381,10.991-7.92,9.609-14.607l-9.627-46.613C58.908,120.85,52.367,116.551,45.68,117.932z"/><path d="M103.308,117.932c-6.687-1.381-13.229,2.918-14.61,9.607l-9.627,46.613c-1.381,6.688,2.923,13.227,9.609,14.607   c6.686,1.381,13.228-2.918,14.609-9.607l9.626-46.613C114.297,125.851,109.992,119.312,103.308,117.932z"/><path d="M54.577,42.203c-4.067,0.288-7.988,1.938-11.597,4.623c-5.945,4.466-11.198,11.754-15.286,22.441   c-4.071,10.707-6.953,24.883-7.734,43.54c-0.185,4.414,3.244,8.144,7.658,8.327c0.114,0.005,0.229,0.007,0.342,0.007   c4.264,0,7.807-3.365,7.985-7.666c0.947-23.129,5.447-37.699,10.122-45.884c0.461-0.813,0.922-1.547,1.381-2.238v18.502   C58.597,70.756,55.87,49.302,54.577,42.203z"/><path d="M101.54,83.855V56.567c5.529-1.762,10.484-3.856,20.59-3.918c2.414-0.001,5.111,0.137,8.141,0.469   c-2.469,3.724-4.502,8.265-6.162,13.69c-2.692,8.914-4.297,20.273-4.301,34.57c0,3.028,0.072,6.188,0.226,9.49   c0.198,4.287,3.737,7.631,7.986,7.631c0.125,0,0.25-0.003,0.376-0.009c0.051-0.002,0.098-0.011,0.148-0.015   c-0.895-2.476-1.133-5.222-0.519-7.976c0.993-4.452,3.969-7.951,7.788-9.798c0.014-4.381,0.2-8.397,0.524-12.063l-0.092-1.808   c0.101-0.087,0.19-0.182,0.289-0.27c0.605-5.687,1.548-10.449,2.666-14.352v11.644c13.507-15.871,6.645-44.024,6.645-44.024h1.105   c-9.867-2.296-17.991-3.182-24.82-3.182c-8.985-0.017-15.745,1.587-20.611,3.104c-2.425,0.752-4.373,1.449-5.78,1.864   c-0.506,0.153-0.931,0.264-1.285,0.344C93.181,48.812,90.267,70.61,101.54,83.855z"/><circle cx="74.494" cy="22.5" r="22.5"/><path d="M166.246,56.498c4.252,0,7.12-6.255,8.706-11.102c-2.707,1.032-5.64,1.604-8.704,1.604c-3.066,0-6-0.571-8.708-1.605   C159.126,50.242,161.994,56.498,166.246,56.498z"/><path d="M185.373,138.004l-13.397-2.987l-9.881,40.522c-1.618,6.635,2.451,13.322,9.085,14.939   c6.631,1.617,13.322-2.447,14.939-9.082l11.247-46.123C194.093,137.839,189.74,138.976,185.373,138.004z"/><path d="M193.293,83.856V63.568c0.827,0.946,1.62,2.013,2.333,3.214c2.04,3.452,3.547,7.953,3.56,14.089   c0,4.792-0.966,10.634-3.532,17.601l-0.646,12.722c3.03,1.543,5.367,4.094,6.676,7.133c1.875-0.67,3.511-2.018,4.471-3.939   c6.342-12.687,9.03-23.841,9.033-33.516c0.035-12.623-4.726-22.485-10.746-28.836c-3.008-3.198-6.289-5.578-9.537-7.226   c-2.907-1.441-5.704-2.386-8.74-2.611C184.871,49.291,182.141,70.754,193.293,83.856z"/><circle cx="166.246" cy="22.5" r="22.5"/><path d="M249.309,42.213c-2.404,0.271-4.199,1.296-5.481,2.239c-2.757,2.132-4.278,4.448-5.942,7.136   c-2.792,4.68-5.377,10.632-7.924,17.189c-7.557,19.568-14.268,44.298-14.309,44.431c-1.162,4.263,1.354,8.659,5.617,9.82   c0.703,0.191,1.412,0.283,2.107,0.283c3.52,0,6.744-2.342,7.713-5.9c0-0.002,0.264-0.974,0.76-2.728   c1.619-5.739,5.67-19.672,10.272-32.653v3.561C254.347,72.748,250.843,49.646,249.309,42.213z"/><path d="M269.17,47c-3.066,0-6-0.571-8.708-1.605c1.586,4.847,4.454,11.103,8.706,11.103c4.252,0,7.12-6.255,8.706-11.102   C275.167,46.429,272.234,47,269.17,47z"/><path d="M240.354,117.932c-6.685,1.381-10.988,7.92-9.607,14.607l9.627,46.613c1.381,6.689,7.924,10.988,14.608,9.607   c6.686-1.381,10.991-7.92,9.609-14.607l-9.627-46.613C253.582,120.85,247.041,116.551,240.354,117.932z"/><path d="M297.982,117.932c-6.688-1.381-13.228,2.918-14.61,9.607l-9.627,46.613c-1.382,6.688,2.923,13.227,9.609,14.607   c6.685,1.381,13.228-2.918,14.608-9.607l9.627-46.613C308.971,125.851,304.667,119.312,297.982,117.932z"/><path d="M296.215,85.592V80.3c2.73,7.196,5.3,14.764,7.302,20.954c1.273,3.932,2.32,7.31,3.049,9.698   c0.725,2.389,1.123,3.755,1.125,3.759c1.018,3.496,4.211,5.768,7.678,5.768c0.74,0,1.493-0.103,2.24-0.32   c4.242-1.236,6.68-5.675,5.444-9.917c-0.03-0.098-4.589-15.781-10.407-31.682c-2.92-7.968-6.123-15.956-9.41-22.345   c-1.666-3.207-3.305-6.007-5.281-8.448c-1.004-1.22-2.088-2.377-3.595-3.454c-1.277-0.897-3.032-1.841-5.333-2.098   C287.493,49.648,283.989,72.75,296.215,85.592z"/><circle cx="269.168" cy="22.5" r="22.5"/><path d="M372.077,47c-3.066,0-6-0.571-8.707-1.605c1.586,4.847,4.454,11.103,8.706,11.103c4.251,0,7.12-6.255,8.706-11.102   C378.075,46.429,375.142,47,372.077,47z"/><path d="M343.262,117.932c-6.686,1.381-10.988,7.92-9.607,14.607l9.627,46.613c1.381,6.689,7.923,10.988,14.607,9.607   c6.687-1.381,10.991-7.92,9.609-14.607l-9.627-46.613C356.49,120.85,349.949,116.551,343.262,117.932z"/><path d="M400.89,117.932c-6.686-1.381-13.228,2.918-14.61,9.607l-9.627,46.613c-1.381,6.688,2.923,13.227,9.609,14.607   c6.685,1.381,13.228-2.918,14.609-9.607l9.626-46.613C411.879,125.851,407.574,119.312,400.89,117.932z"/><path d="M340.696,118.464c1.176-0.588,2.139-1.43,2.865-2.421l-0.558-10.973c-4.191-9.125-5.679-16.571-5.679-22.512   c0.039-9.099,3.328-14.992,7.175-19.027c0.174-0.18,0.354-0.331,0.53-0.502v20.826c11.15-13.102,8.422-34.56,7.129-41.655   c-3.135,0.236-6,1.22-9.053,2.712c-5.072,2.555-10.414,6.819-14.642,13.109c-4.22,6.27-7.157,14.608-7.141,24.537   c0,9.452,2.591,20.239,8.64,32.33c1.27,2.536,3.705,4.091,6.331,4.366c0.275,0.028,0.551,0.057,0.829,0.057   C338.327,119.311,339.548,119.039,340.696,118.464z"/><path d="M399.122,83.855v-18.89c1.454,2.171,3.029,4.994,4.638,8.648c3.908,8.805,7.995,22.204,11.664,41.679   c0.725,3.84,4.082,6.518,7.852,6.519c0.492,0,0.992-0.046,1.493-0.141c4.341-0.819,7.195-5.003,6.378-9.344   c-5.129-27.036-11.002-43.699-17.535-54.412c-3.283-5.341-6.807-9.245-10.719-11.902c-3.494-2.395-7.348-3.624-10.898-3.83   C390.704,49.261,387.963,70.744,399.122,83.855z"/><circle cx="372.076" cy="22.5" r="22.5"/><path d="M185.811,136.051c6.666,1.486,13.272-2.715,14.758-9.377c1.486-6.664-2.709-13.273-9.376-14.76l-46.457-10.357   c-6.665-1.486-13.271,2.715-14.758,9.379c-1.485,6.662,2.711,13.271,9.377,14.758L185.811,136.051z"/></g><text x="0" y="206.476" fill="#000000" font-size="5px" font-weight="bold" font-family="'Helvetica Neue', Helvetica, Arial-Unicode, Arial, Sans-serif">Created by Gan Khoon Lay</text><text x="0" y="211.476" fill="#000000" font-size="5px" font-weight="bold" font-family="'Helvetica Neue', Helvetica, Arial-Unicode, Arial, Sans-serif">from the Noun Project</text></svg>